<?xml version="1.0" encoding="UTF-8"?>
<svg width="24px" height="24px" viewBox="0 0 24 24" version="1.1" xmlns="http://www.w3.org/2000/svg">
    <g stroke="none" stroke-width="1" fill="none" fill-rule="evenodd">
        <path d="M12,2 C6.477,2 2,6.477 2,12 C2,16.419 4.865,20.167 8.84,21.49 C9.34,21.581 9.525,21.27 9.525,21.059 C9.525,20.869 9.512,20.6 9.512,20.324 C7,20.938 6.35,19.768 6.15,19.172 C6.037,18.844 5.55,17.768 5.125,17.607 C4.75,17.461 4.275,17.022 5.11,17.017 C5.945,17.012 6.562,17.801 6.7,18.104 C7.6,20.2 9.4,19.713 9.56,19.605 C9.66,19.042 9.89,18.64 10.16,18.39 C7.95,18.128 5.62,17.213 5.62,12.977 C5.62,11.492 6.13,10.244 6.87,9.255 C6.765,8.976 6.6,8.238 6.71,7.228 C6.71,7.228 7.37,7.044 9.53,8.322 C10.58,8.045 11.69,7.911 12.79,7.911 C13.89,7.911 15,8.045 16.05,8.322 C18.21,7.044 18.87,7.228 18.87,7.228 C18.98,8.238 18.815,8.976 18.71,9.255 C19.45,10.244 19.96,11.492 19.96,12.977 C19.96,17.213 17.63,18.128 15.42,18.39 C15.78,18.712 16.08,19.348 16.08,20.324 C16.08,21.6 16.068,22.68 16.068,23.059 C16.068,23.27 16.253,23.581 16.753,23.49 C20.728,20.167 23.593,16.419 23.593,12 C23.593,6.477 19.116,2 13.593,2" fill="#000000" fill-rule="nonzero"></path>
    </g>
</svg> 